<svg xmlns="http://www.w3.org/2000/svg" xmlns:xlink="http://www.w3.org/1999/xlink" version="1.1" id="katman_1" x="0px" y="0px" style="enable-background:new 0 0 841.89 595.28;" xml:space="preserve" viewBox="178.35 224.95 485.18 145.36">
<style type="text/css">
	.st0{fill:#575756;}
	.st1{fill-rule:evenodd;clip-rule:evenodd;fill:#0E3B83;}
	.st2{fill:#0E3B83;}
	.st3{fill:#0D9695;}
	.st4{fill:#30A489;}
	.st5{fill:#007671;}
	.st6{fill:#00A9E3;}
	.st7{fill:url(#SVGID_1_);}
</style>
<g>
	<rect x="371.11" y="224.95" class="st0" width="2.42" height="145.17"/>
	<g>
		<path class="st1" d="M216.95,321.1l-0.18,1.9c-0.37-0.15-0.73-0.27-1.08-0.36c-0.17-0.04-0.34-0.07-0.51-0.09    c-0.17-0.02-0.33-0.03-0.49-0.03c-0.5,0-0.88,0.08-1.16,0.24c-0.28,0.16-0.42,0.38-0.42,0.65c0,0.19,0.07,0.36,0.21,0.5    s0.35,0.27,0.64,0.37l0.41,0.13c1.05,0.34,1.75,0.64,2.09,0.9c0.32,0.24,0.55,0.53,0.71,0.85c0.15,0.33,0.23,0.71,0.23,1.13    c0,1.01-0.34,1.78-1.01,2.31c-0.67,0.54-1.65,0.81-2.92,0.81c-0.45,0-0.91-0.03-1.38-0.1s-0.93-0.16-1.39-0.29l0.21-2.05    c0.43,0.2,0.85,0.35,1.25,0.45c0.19,0.05,0.39,0.08,0.59,0.11c0.2,0.03,0.39,0.04,0.57,0.04c0.48,0,0.86-0.09,1.14-0.27    c0.28-0.18,0.42-0.43,0.42-0.74c0-0.38-0.45-0.73-1.34-1.04l-0.5-0.17c-0.87-0.31-1.49-0.67-1.87-1.09    c-0.38-0.42-0.57-0.95-0.57-1.6c0-0.92,0.33-1.62,0.99-2.12c0.66-0.5,1.61-0.75,2.83-0.75c0.47,0,0.9,0.03,1.31,0.08    c0.21,0.03,0.41,0.06,0.61,0.1C216.55,320.99,216.75,321.04,216.95,321.1z M223.21,322.85h2.28v7.35h2.45v-7.35h2.28v-1.84h-7    V322.85z M240.96,326.5h-2.34l1.19-3.44L240.96,326.5z M234.9,330.2h2.42l0.69-1.95h3.54l0.65,1.95h2.62l-3.48-9.19h-2.95    L234.9,330.2z M250.49,330.2h2.21v-4.85c0-0.16-0.01-0.35-0.02-0.58c-0.01-0.23-0.03-0.44-0.05-0.63    c-0.03-0.32-0.06-0.59-0.08-0.79c-0.03-0.2-0.06-0.44-0.1-0.72c0.11,0.4,0.21,0.73,0.3,1.01c0.12,0.32,0.23,0.61,0.36,0.85    l2.77,5.71h3.04v-9.19h-2.21l0,5.2c0,0.29,0.02,0.63,0.05,1.02c0.04,0.39,0.09,0.81,0.17,1.27c-0.07-0.22-0.15-0.44-0.22-0.67    c-0.1-0.3-0.16-0.48-0.18-0.54c-0.13-0.35-0.23-0.61-0.32-0.78l-2.66-5.51h-3.06V330.2z M269.29,326.34    c0.47,0,0.82,0.09,1.06,0.27c0.24,0.18,0.36,0.44,0.36,0.79c0,0.36-0.13,0.63-0.39,0.82c-0.26,0.19-0.64,0.28-1.13,0.28h-0.96    v-2.16H269.29z M269.08,322.66c0.47,0,0.83,0.08,1.07,0.25c0.24,0.17,0.36,0.41,0.36,0.74c0,0.36-0.13,0.62-0.38,0.8    c-0.26,0.17-0.64,0.26-1.16,0.26h-0.74v-2.05H269.08z M265.82,330.2h3.57c1.28,0,2.23-0.21,2.85-0.62    c0.62-0.42,0.92-1.05,0.92-1.92c0-0.58-0.17-1.06-0.51-1.44c-0.34-0.38-0.82-0.63-1.45-0.74c0.56-0.16,0.99-0.41,1.28-0.76    c0.29-0.35,0.44-0.79,0.44-1.33c0-0.79-0.28-1.38-0.84-1.78c-0.56-0.4-1.4-0.6-2.5-0.6h-3.76V330.2z M279.73,326.35    c0,1.34,0.33,2.36,0.99,3.04c0.66,0.68,1.63,1.02,2.93,1.02c1.31,0,2.3-0.34,2.95-1.01c0.65-0.67,0.98-1.69,0.98-3.04v-5.35h-2.33    v5.35c0,0.73-0.13,1.28-0.4,1.66c-0.27,0.38-0.67,0.57-1.19,0.57c-0.51,0-0.89-0.18-1.12-0.53c-0.23-0.35-0.35-0.92-0.35-1.69    v-5.35h-2.45V326.35z M294.47,330.2h6.14v-1.81h-3.69v-7.37h-2.45V330.2z M201.47,320.19h2.45v-1.22h-2.45V320.19z M201.47,330.2    h2.45v-9.19h-2.45V330.2z M184.16,346.8c0.79,0,1.38,0.15,1.77,0.45s0.6,0.74,0.6,1.32c0,0.6-0.22,1.05-0.65,1.37    c-0.44,0.31-1.07,0.47-1.9,0.47h-1.61v-3.61H184.16z M183.8,340.64c0.79,0,1.38,0.14,1.79,0.42c0.4,0.28,0.61,0.69,0.61,1.24    c0,0.6-0.21,1.05-0.64,1.34c-0.43,0.29-1.08,0.44-1.94,0.44h-1.25v-3.43H183.8z M178.35,353.24h5.98c2.15,0,3.74-0.35,4.77-1.04    c1.03-0.7,1.55-1.76,1.55-3.21c0-0.97-0.28-1.78-0.85-2.41c-0.57-0.63-1.38-1.05-2.42-1.24c0.94-0.26,1.65-0.68,2.14-1.27    c0.49-0.58,0.74-1.32,0.74-2.22c0-1.32-0.47-2.31-1.41-2.98c-0.94-0.67-2.34-1-4.19-1h-6.29V353.24z M213.77,347.53v5.71h4.1    v-5.76l5.58-9.62h-4.41l-3.06,6.49l-3.07-6.49h-4.65L213.77,347.53z M225.1,346.81c0,2.25,0.55,3.94,1.65,5.08    c1.1,1.14,2.74,1.7,4.9,1.7c2.2,0,3.84-0.56,4.93-1.69c1.09-1.13,1.63-2.82,1.63-5.1v-8.95h-3.9v8.95c0,1.22-0.23,2.14-0.68,2.78    c-0.45,0.63-1.11,0.95-1.99,0.95c-0.86,0-1.48-0.3-1.87-0.89c-0.39-0.59-0.58-1.54-0.58-2.84v-8.95h-4.1V346.81z M232.34,336.5    h3.89v-2.05h-3.89V336.5z M227.07,336.5h3.89v-2.05h-3.89V336.5z M193.49,346.81c0,2.25,0.55,3.94,1.65,5.08    c1.1,1.14,2.74,1.7,4.9,1.7c2.2,0,3.84-0.56,4.93-1.69c1.09-1.13,1.63-2.82,1.63-5.1v-8.95h-3.9v8.95c0,1.22-0.23,2.14-0.68,2.78    c-0.45,0.63-1.11,0.95-1.99,0.95c-0.86,0-1.48-0.3-1.87-0.89c-0.39-0.59-0.58-1.54-0.58-2.84v-8.95h-4.1V346.81z M200.73,336.5    h3.89v-2.05h-3.89L200.73,336.5z M195.47,336.5h3.89v-2.05h-3.89V336.5z M242.02,353.24h4.1v-7.13l4.84,7.13h5.09l-6.23-8.31    l5.65-7.07h-4.59l-4.76,6.65v-6.65h-4.1V353.24z M271.66,353.24h10.92v-2.97h-6.83v-3.5h6.21v-2.92h-6.21v-3.1h6.58v-2.88h-10.67    V353.24z M286.09,353.24h4.1v-6.42h4.79v6.42h4.1v-15.38h-4.1v5.87h-4.79v-5.87h-4.1V353.24z M302.91,336.5h4.1v-2.05h-4.1V336.5z     M302.91,353.24h4.1v-15.38h-4.1V353.24z M315.88,340.57c1.07,0,1.85,0.16,2.34,0.49c0.49,0.33,0.74,0.83,0.74,1.53    c0,0.64-0.22,1.13-0.66,1.45c-0.44,0.32-1.11,0.48-2,0.48h-1.44v-3.94H315.88z M310.86,353.24h4.01v-6h0.6    c0.8,0,1.39,0.13,1.76,0.39c0.37,0.26,0.67,0.73,0.88,1.4l1.35,4.21h4.27l-1.84-5.11c-0.5-1.38-1.15-2.22-1.95-2.52    c0.99-0.23,1.74-0.67,2.26-1.3c0.52-0.64,0.77-1.45,0.77-2.44c0-1.36-0.49-2.36-1.47-3.02s-2.49-0.98-4.53-0.98h-6.11V353.24z     M268.73,348.38c0-0.71-0.13-1.35-0.38-1.9c-0.26-0.55-0.65-1.03-1.18-1.43c-0.58-0.44-1.74-0.94-3.5-1.51l-0.68-0.22    c-0.48-0.17-0.84-0.37-1.08-0.61c-0.23-0.24-0.35-0.52-0.35-0.84c0-0.45,0.23-0.82,0.7-1.08c0.47-0.27,1.11-0.4,1.94-0.4    c0.27,0,0.55,0.02,0.83,0.05c0.28,0.04,0.56,0.09,0.85,0.15c0.58,0.14,1.19,0.34,1.8,0.6l0.3-3.17c-0.34-0.1-0.67-0.18-1-0.25    c-0.33-0.07-0.67-0.12-1.02-0.16c-0.68-0.09-1.41-0.14-2.18-0.14c-2.05,0-3.63,0.42-4.74,1.26c-1.11,0.84-1.66,2.02-1.66,3.56    c0,1.09,0.32,1.98,0.95,2.68c0.63,0.7,1.67,1.31,3.13,1.83l0.83,0.29c1.5,0.53,2.25,1.11,2.25,1.74c0,0.52-0.24,0.93-0.71,1.24    c-0.47,0.3-1.11,0.45-1.91,0.45c-0.3,0-0.62-0.02-0.95-0.07c-0.33-0.04-0.66-0.1-0.98-0.18c-0.68-0.17-1.38-0.42-2.1-0.75    l-0.35,3.43c0.77,0.22,1.55,0.38,2.32,0.49c0.44,0.06,0.87,0.07,1.3,0.09l-0.17,1.77l3.89,0l0.19-2.06    c0.77-0.22,1.44-0.54,1.97-0.96C268.17,351.36,268.73,350.06,268.73,348.38z M205.03,366.26c0.47,0,0.82,0.09,1.06,0.27    c0.24,0.18,0.36,0.44,0.36,0.79c0,0.36-0.13,0.63-0.39,0.82c-0.26,0.19-0.64,0.28-1.14,0.28h-0.96v-2.16H205.03z M204.82,362.58    c0.47,0,0.83,0.08,1.07,0.25c0.24,0.17,0.36,0.41,0.36,0.74c0,0.36-0.13,0.62-0.39,0.8c-0.26,0.18-0.64,0.26-1.16,0.26h-0.74    v-2.05H204.82z M201.56,370.12h3.58c1.28,0,2.24-0.21,2.85-0.62c0.62-0.42,0.92-1.06,0.92-1.92c0-0.58-0.17-1.06-0.51-1.44    c-0.34-0.38-0.82-0.63-1.45-0.74c0.56-0.16,0.99-0.41,1.28-0.76s0.44-0.79,0.44-1.33c0-0.79-0.28-1.38-0.84-1.78    c-0.56-0.4-1.4-0.6-2.51-0.6h-3.76V370.12z M213.23,370.12h6.53v-1.78h-4.08v-2.09h3.71v-1.75h-3.71v-1.86h3.93v-1.72h-6.38    V370.12z M224.5,370.12h6.14v-1.82h-3.69v-7.38h-2.45V370.12z M234.67,370.12h6.53v-1.78h-4.08v-2.09h3.71v-1.75h-3.71v-1.86h3.93    v-1.72h-6.38V370.12z M249.06,362.7c0.91,0,1.61,0.24,2.1,0.72c0.49,0.48,0.73,1.16,0.73,2.04c0,0.89-0.23,1.58-0.7,2.07    c-0.47,0.49-1.14,0.73-2,0.73h-1.06v-5.58H249.06z M245.66,370.12h2.92c0.46,0,0.89-0.01,1.28-0.04c0.39-0.03,0.72-0.06,1-0.1    c0.57-0.09,1.03-0.25,1.39-0.45c0.73-0.43,1.28-0.98,1.63-1.64c0.35-0.66,0.53-1.47,0.53-2.42c0-0.86-0.17-1.62-0.51-2.27    c-0.34-0.66-0.85-1.2-1.51-1.62c-0.36-0.22-0.82-0.38-1.38-0.49c-0.56-0.11-1.27-0.16-2.12-0.16h-3.22V370.12z M267.06,366.7v3.42    h2.45v-3.44l3.34-5.75h-2.64l-1.83,3.88l-1.84-3.88h-2.78L267.06,366.7z M276.26,370.12h6.53v-1.78h-4.08v-2.09h3.71v-1.75h-3.71    v-1.86h3.93v-1.72h-6.38V370.12z M292.75,360.86c-0.2-0.04-0.4-0.07-0.61-0.1c-0.41-0.06-0.84-0.08-1.31-0.08    c-1.23,0-2.17,0.25-2.84,0.75c-0.66,0.5-0.99,1.21-0.99,2.13c0,0.65,0.19,1.19,0.57,1.6c0.38,0.42,1,0.78,1.87,1.09l0.5,0.17    c0.9,0.32,1.34,0.66,1.34,1.04c0,0.31-0.14,0.56-0.42,0.74c-0.28,0.18-0.66,0.27-1.14,0.27c-0.18,0-0.37-0.01-0.57-0.04    c-0.2-0.03-0.39-0.06-0.59-0.11c-0.41-0.1-0.82-0.25-1.25-0.45l-0.21,2.05c0.46,0.13,0.92,0.23,1.39,0.29    c0.47,0.06,0.92,0.1,1.38,0.1c1.28,0,2.25-0.27,2.92-0.81c0.67-0.54,1.01-1.31,1.01-2.32c0-0.43-0.08-0.81-0.23-1.13    c-0.15-0.33-0.39-0.61-0.71-0.86c-0.34-0.26-1.04-0.56-2.09-0.9l-0.41-0.13c-0.29-0.1-0.5-0.22-0.64-0.37    c-0.14-0.14-0.21-0.31-0.21-0.5c0-0.27,0.14-0.49,0.42-0.65c0.28-0.16,0.66-0.24,1.16-0.24c0.16,0,0.33,0.01,0.49,0.03    c0.17,0.02,0.34,0.05,0.51,0.09c0.35,0.09,0.71,0.2,1.08,0.36l0.18-1.9C293.15,360.95,292.95,360.9,292.75,360.86z M258.27,360.11    h2.45v-1.23h-2.45V360.11z M258.27,370.12h2.45v-9.19h-2.45V370.12z M298.07,360.11h2.45v-1.23h-2.45V360.11z M298.07,370.12h2.45    v-9.19h-2.45V370.12z"/>
		<path class="st2" d="M249.73,297.67v11.8c-14.93-0.68-26.83-13-26.83-28.1V279h2.36v2.36h2.36V279h2.36v2.36h2.35V279h2.36v2.36    C234.68,289.95,241.31,297,249.73,297.67z M276.82,281.36h-2.36V279h-2.36v2.36h-2.35V279h-2.36v2.36    c0,8.59-6.63,15.64-15.05,16.31v11.8c14.93-0.68,26.83-13,26.83-28.1V279h-2.36V281.36z M230.13,262.56    c-3.47,0-6.38,2.4-7.17,5.63h14.34C236.51,264.96,233.6,262.56,230.13,262.56z M247.31,283.53l3.73,6.46l3.73-6.46H247.31z     M258.5,277.06h-7.46l3.73,6.46L258.5,277.06z M264.79,268.19h14.34c-0.79-3.23-3.7-5.63-7.17-5.63    C268.48,262.56,265.57,264.96,264.79,268.19z M251.04,295.1c-7.59,0-13.74-6.15-13.74-13.74V260.4l-1.96-1.95v-1.96h1.96v-7.92    l1.96-11.78l1.96,11.78v7.92h1.96h1.96v-7.93l-1.96-1.95v-1.96h1.96v-7.92l1.96-11.78l1.96,11.78v7.92h1.96H253v-7.92l1.96-11.78    l1.96,11.78v7.92h1.96v1.96l-1.96,1.95v7.93h1.96h1.96v-7.92l1.96-11.78l1.96,11.78v7.92h1.96v1.96l-1.96,1.95v21.14h0    C264.68,289.04,258.57,295.1,251.04,295.1z M256.93,268.94c1.47,0.7,2.8,1.65,3.93,2.8V260.4l-1.96-1.95l-1.96,1.95V268.94z     M249.08,256.49h1.96H253v-7.93l-1.96-1.95l-1.96,1.95V256.49z M249.08,267.76c0.64-0.09,1.3-0.14,1.96-0.14    c0.67,0,1.32,0.05,1.96,0.14v-7.36l-1.96-1.95l-1.96,1.95V267.76z M241.23,271.75c1.13-1.15,2.45-2.1,3.93-2.8v-8.54l-1.96-1.95    l-1.96,1.95V271.75z M258.5,289.99l-3.73-6.46h7.46l-3.73-6.46l-3.73-6.46l-3.73,6.46l-3.73-6.46l-3.73,6.46h7.46l-3.73,6.46    l-3.73-6.46l-3.73,6.46h7.46l-3.73,6.46h7.46H258.5z M228.79,270.39c-4.12,0-7.57,2.84-8.5,6.67h17    C236.36,273.23,232.91,270.39,228.79,270.39z M264.79,277.06h17c-0.93-3.83-4.38-6.67-8.5-6.67    C269.17,270.39,265.72,273.23,264.79,277.06z"/>
	</g>
	<g>
		<g>
			<g>
				<path class="st2" d="M515.11,271.98c0-0.9,0.76-1.63,1.63-1.63c0.9,0,1.6,0.73,1.6,1.63c0,0.9-0.69,1.63-1.6,1.63      C515.88,273.61,515.11,272.88,515.11,271.98z M515.29,293.85v-18.33h2.88v18.33H515.29z"/>
				<path class="st2" d="M521.5,290.59l1.7-2.19c1.53,1.7,4.03,3.3,7.29,3.3c4.13,0,5.45-2.22,5.45-3.99      c0-5.97-13.71-2.67-13.71-10.94c0-3.82,3.4-6.42,7.95-6.42c3.54,0,6.28,1.18,8.23,3.23l-1.74,2.12      c-1.74-1.91-4.17-2.78-6.7-2.78c-2.78,0-4.76,1.49-4.76,3.68c0,5.21,13.71,2.22,13.71,10.87c0,3.37-2.29,6.8-8.54,6.8      C526.36,294.27,523.41,292.74,521.5,290.59z"/>
				<path class="st2" d="M548.06,293.85v-20.59h-7.33v-2.57h17.57v2.57h-7.36v20.59H548.06z"/>
				<path class="st2" d="M575.63,293.85l-2.05-5.14h-11.53l-2.05,5.14h-3.3l9.3-23.16h3.58l9.34,23.16H575.63z M567.82,273.68      l-4.93,12.46h9.83L567.82,273.68z"/>
				<path class="st2" d="M597.64,293.85l-13.51-18.47v18.47h-2.88v-23.16h2.95l13.33,18.09v-18.09h2.88v23.16H597.64z"/>
				<path class="st2" d="M605.14,293.85v-23.16h10.31c4.03,0,6.49,2.43,6.49,5.9c0,2.92-1.94,4.86-4.06,5.31      c2.47,0.38,4.51,2.92,4.51,5.69c0,3.72-2.47,6.25-6.7,6.25H605.14z M618.96,277.01c0-2.08-1.39-3.75-3.99-3.75h-6.94v7.46h6.94      C617.57,280.73,618.96,279.13,618.96,277.01z M619.41,287.29c0-2.12-1.46-3.99-4.31-3.99h-7.08v7.99h7.08      C617.81,291.28,619.41,289.75,619.41,287.29z"/>
				<path class="st2" d="M626.29,284.86v-14.17h2.88v14.1c0,4.24,2.29,6.91,6.56,6.91c4.27,0,6.56-2.67,6.56-6.91v-14.1h2.88v14.13      c0,5.76-3.16,9.44-9.44,9.44C629.44,294.27,626.29,290.55,626.29,284.86z"/>
				<path class="st2" d="M649.89,293.85v-23.16h2.88v20.59h10.76v2.57H649.89z"/>
			</g>
			<g>
				<path class="st2" d="M521.77,304.43c0,1.98-1.53,3.51-3.51,3.51c-1.98,0-3.51-1.53-3.51-3.51c0-1.98,1.53-3.51,3.51-3.51      C520.24,300.92,521.77,302.45,521.77,304.43z M521.32,326.11h-6.13v-17.07h6.13V326.11z"/>
				<path class="st2" d="M576.52,326.15h-6.93l-1.6-4.59h-9l-1.58,4.59h-6.83l9.12-24.09h7.71L576.52,326.15z M561.01,315.72h4.94      l-2.46-7.12L561.01,315.72z"/>
				<path class="st2" d="M597.72,310.08c0,3.72-2.15,6.38-6.23,7.23l6.56,8.84h-7.71l-5.8-8.55h-0.36v8.55h-6.54v-24.09h10.74      C594.5,302.06,597.72,305.22,597.72,310.08z M584.18,307.93v4.28h4.13c1.62,0,2.81-0.67,2.81-2.13c0-1.46-1.19-2.15-2.81-2.15      H584.18z"/>
				<path class="st2" d="M542.68,302.06h6.35v2v8.56v2.96v8.56v2h-6.52v-2v-10.93l-5.88,8.61l-5.87-8.61v10.93v2h-6.54v-2v-8.56      v-2.96v-8.56v-2h6.37l0.78,1.18l5.26,7.7l5.26-7.7L542.68,302.06z"/>
			</g>
		</g>
		<g>
			
				<rect x="451.22" y="312.21" transform="matrix(0.7071 -0.7071 0.7071 0.7071 -93.2007 421.6082)" class="st2" width="22.16" height="22.18"/>
			
				<rect x="425.5" y="286.51" transform="matrix(0.7071 -0.7071 0.7071 0.7071 -82.5561 395.8511)" class="st3" width="22.16" height="22.15"/>
			
				<rect x="443.97" y="273.6" transform="matrix(0.7072 -0.7071 0.7071 0.7072 -69.6499 401.1783)" class="st4" width="11.05" height="22.15"/>
			
				<rect x="451.34" y="260.68" transform="matrix(0.7071 -0.7071 0.7071 0.7071 -56.7238 406.5527)" class="st5" width="22.16" height="22.15"/>
			
				<rect x="438.41" y="304.98" transform="matrix(0.7071 -0.7071 0.7071 0.7071 -87.9048 408.7815)" class="st6" width="22.16" height="11.05"/>
			<linearGradient id="SVGID_1_" gradientUnits="userSpaceOnUse" x1="489.5394" y1="321.0785" x2="473.0423" y2="267.8166">
				<stop offset="0.1266" style="stop-color:#0E3B83"/>
				<stop offset="0.7503" style="stop-color:#3092D0"/>
				<stop offset="0.7554" style="stop-color:#3192D0"/>
				<stop offset="1" style="stop-color:#00A9E3"/>
			</linearGradient>
			<polygon class="st7" points="486.46,280.2 479.21,272.96 463.58,288.59 472.46,297.46 463.47,306.45 479.16,322.15      485.93,315.39 503.78,297.53    "/>
		</g>
	</g>
</g>
</svg>